<?xml version="1.0" encoding="utf-8"?>
<!-- Generator: Adobe Illustrator 19.2.0, SVG Export Plug-In . SVG Version: 6.00 Build 0)  -->
<svg version="1.1" id="Layer_1" xmlns="http://www.w3.org/2000/svg" xmlns:xlink="http://www.w3.org/1999/xlink" x="0px" y="0px"
   viewBox="0 0 84.2 208.8" style="enable-background:new 0 0 84.2 208.8;" xml:space="preserve">
<g>
  <g>
    <path opacity="1.0" fill="none" stroke="#fff" stroke-width="6" stroke-linecap="round" stroke-linejoin="round" d="M84.6,13.7c0,64.6,0,129.3,0,193.9c0,1.3-0.3,1.6-1.6,1.6c-10.6-0.1-21.2,0-31.8,0c-1.1-1.2-2.7-1.1-4.2-1.4
      c-2.8-0.5-5.8-0.2-8.6-1.4c-1.4-0.7-2.4-1.7-2.7-3.2c-0.2-1.4-0.3-2.9-0.4-4.3c-0.4-4.3-0.7-8.7-1.1-13c-0.4-4.3-0.9-8.7-1.3-13
      c-0.4-3.6-0.8-7.3-1-10.9c-0.2-4.3-0.2-8.5,0-12.8c0-1.4,0.4-2.9,1-4.2c2-4.3,4-8.6,6-12.9c1.1-2.4,1.9-5.2,3.6-7.2
      c1.7-2,4.8-2.5,7.2-3.8c5.5-2.9,11.3-5.3,17-7.8c2.3-1,2.8-0.6,2.7,1.9c-0.1,2.3-0.8,4.6-1.3,6.8c-0.5,2.6-0.2,4.8,1.1,6
      c0.2-0.9,0.3-1.9,0.6-2.7c0.2-0.5,0.3-1.3,1.1-1.2c0.7,0.1,0.6,0.9,0.6,1.5c0,1.1-0.6,2.2-0.3,3.3c-0.1,0.1-0.1,0.1-0.2,0.2
      c0,0,0.1,0,0.1,0c0,0,0-0.1,0.1-0.1c0.9-0.5,1.6-1.3,1.7-2.3c0.6-4.1,0.6-8.3,0.3-12.4c-0.3-4.1-1.8-5-5.7-3.6
      c-2.9,1-5.7,2.1-8.5,3.2c-4.1,1.6-8.2,3.1-12.3,4.7c-0.4,0.1-1.4,0.6-1-0.3c0.7-1.8,1.3-3.9,2.9-5.1c4.9-3.6,9.7-7.3,14.2-11.4
      c7.4-6.8,13.8-14.3,17.1-23.9c1.3-3.6,2.2-7.3,1.4-11.3c-0.4-1.7-0.6-3.4-0.3-5.2c0.5-2.9,0.5-5.8-0.4-8.7
      C77.5,42.4,70,36.9,60.2,34.1c-4-1.2-8.2-1.6-11.7-4.3c-4.9-3.9-7.3-13.1,0.3-17.6c5.3-3.1,10.7-4.7,16.7-1.8
      c3.1,1.5,6.4,1.9,9.6,0.2c0.8-0.4,1.2,0.1,1.6,0.5c1.5,1.7,3.1,3.4,4.6,5.1c0.5,0.6,0.9,1.7,1.7,1.5c0.7-0.2,0.6-1.4,0.9-2.1
      C84.2,14.9,84,14.2,84.6,13.7z"/>

    <path opacity="1.0" fill="none" stroke="#fff" stroke-width="6" stroke-linecap="round" stroke-linejoin="round" d="M0.4,141.8c1.4-3.3,2.1-6.7,3.2-10.1c4.3-13.9,9.5-27.4,17.8-39.6c5.7-8.3,12.6-15.4,21.1-21
      c5.9-3.8,12.2-6.6,18.8-8.7c2.4-0.7,4.7-1.7,6.7-3.4c4.3-3.8,3.7-9.5,0.6-13.3c-3.1-3.8-7.5-5.4-11.8-7.2
      c-4.3-1.8-8.7-3.4-12.3-6.6c-4.6-4-6.9-13-3.3-18.2c2.3-3.4,5.6-5.5,9.3-7.2c3-1.3,6.1-2.4,9.3-3c2.9-0.5,5.3-2.1,7.8-3.4
      c1.1,0,2.1,0,3.2,0c1.3,1,2.7,2,3.9,3.1c1.2,1,2.4,2.2,4.1,2.1c3-0.1,5,1.2,6.1,3.9c0,1.4,0,2.8,0,4.2c-0.5,0.5-0.4,1.2-0.6,1.8
      c-0.3,0.7-0.2,2-0.9,2.1c-0.8,0.2-1.1-0.9-1.7-1.5c-1.5-1.7-3.1-3.4-4.6-5.1c-0.4-0.5-0.8-1-1.6-0.5c-3.2,1.7-6.5,1.3-9.6-0.2
      c-6-2.9-11.5-1.3-16.7,1.8c-7.6,4.5-5.2,13.7-0.3,17.6c3.4,2.7,7.7,3.2,11.7,4.3c9.8,2.8,17.3,8.3,20.5,18.4
      c0.9,2.8,0.9,5.8,0.4,8.7c-0.3,1.8,0,3.5,0.3,5.2c0.8,4-0.1,7.7-1.4,11.3c-3.4,9.6-9.7,17.2-17.1,23.9c-4.5,4.1-9.3,7.8-14.2,11.4
      c-1.7,1.2-2.2,3.3-2.9,5.1c-0.4,0.9,0.6,0.4,1,0.3c4.1-1.5,8.2-3.1,12.3-4.7c2.8-1.1,5.7-2.2,8.5-3.2c3.8-1.4,5.4-0.5,5.7,3.6
      c0.3,4.1,0.2,8.3-0.3,12.4c-0.1,1-0.8,1.8-1.7,2.3l0,0c-0.2-1.1,0.3-2.2,0.3-3.3c0-0.6,0.1-1.3-0.6-1.5c-0.8-0.2-0.9,0.6-1.1,1.2
      c-0.3,0.9-0.4,1.8-0.6,2.7c-1.3-1.3-1.7-3.4-1.1-6c0.5-2.3,1.2-4.5,1.3-6.8c0.1-2.5-0.5-2.9-2.7-1.9c-5.7,2.5-11.5,4.9-17,7.8
      c-2.4,1.3-5.5,1.7-7.2,3.8c-1.7,2-2.4,4.7-3.6,7.2c-2,4.3-3.9,8.6-6,12.9c-0.6,1.3-1,2.8-1,4.2c-0.1,4.3-0.2,8.5,0,12.8
      c0.1,3.7,0.6,7.3,1,10.9c0.4,4.3,0.9,8.7,1.3,13c0.4,4.3,0.8,8.7,1.1,13c0.1,1.4,0.2,2.9,0.4,4.3c0.2,1.6,1.2,2.6,2.7,3.2
      c2.7,1.3,5.7,0.9,8.6,1.4c1.5,0.3,3,0.2,4.2,1.4c-4.6,0-9.1,0-13.7,0c-1.2-0.6-2.6-1-3.3-2.3c-0.1-0.3-0.4-0.5-0.7-0.4
      c-0.9,0.4-0.8-0.1-0.6-0.7c1-4.6,0.1-9.2,0-13.8c0-3-0.4-6-0.7-9.1c-0.5-4.9-1.1-9.7-1.7-14.6c-0.5-4.3-1-8.7-1.7-13
      c-0.7-4.5-0.8-8.8,1.7-12.8c1.3-2.2,2.4-4.5,3.5-6.9c1.2-2.6,2.5-5.2,3.1-8.2c-0.4,0-0.6,0-0.7,0.1c-6.3,3.2-12.8,6-18,11
      c-0.4,0.4-0.9,0.9-1.5,0.6c-0.6-0.3-0.7-0.9-0.8-1.5c-0.2-1.6,0.1-2.9,1.3-4.1c3.9-4,8.3-7.3,12.7-10.7c1.1-0.9,1.5-2,1.8-3.4
      c-0.5,0.3-0.8,0.4-1.1,0.6c-3.3,2.7-6.8,5.2-9.8,8.2c-1.7,1.7-3.4,3.4-4.9,5.2c-0.4,0.5-0.9,1.3-1.7,0.9c-0.8-0.3-0.4-1.1-0.5-1.7
      c-0.1-1.3,0.4-2.4,0.9-3.5c1.8-3.8,3.6-7.7,5.4-11.5c0-0.1,0.1-0.1,0.2-0.2c-0.1,0.1-0.1,0.1-0.2,0.2c-1.8,1-3.2,2.5-4.3,4.2
      c-2.1,3.2-3.4,6.8-4.7,10.3c-1.4,3.7-2.7,7.4-4.1,11.1C7.1,143,7,143,6.9,143c0.7-3,1.3-6,2-9c-2.3,3.4-3.4,7.3-5,11
      c0.6-3.6,1.2-7.3,1.8-10.9c-1,1.2-1.6,2.5-2.3,3.7c-1,1.7-1.5,3.7-2.9,5.1C0.4,142.5,0.4,142.1,0.4,141.8z M9,133.1L9,133.1l0,0.1
      L9,133.1z"/>
  </g>
</g>
</svg>
