<?xml version="1.0" encoding="utf-8"?>
<svg version="1.1" id="Layer_1" xmlns="http://www.w3.org/2000/svg" xmlns:xlink="http://www.w3.org/1999/xlink" x="0px" y="0px"
	 viewBox="0 0 200 400" style="enable-background:new 0 0 200 400;" xml:space="preserve">
<path opacity="1.0" fill="none" stroke="#fff" stroke-width="6" stroke-linecap="round" stroke-linejoin="round" d="M91.5,124.3c-6.6-6.6-18-4-26.2,0.5c-14,7.5-25.7,19.1-33.4,33c9.2-18.9,19.8-39.3,39.1-47.6
	c-20.5,0.9-40.5,10.5-54.1,26C15,113.4,29.1,90.4,50,81.8c8.7-3.6,20-4.3,26.2,2.7C65.4,64.8,48,48.7,27.4,39.5
	C55.6,41,82.6,56.4,98.3,79.8c1.9-13.4,4.6-26.6,8.2-39.7c1.9,13.8,5.3,27.3,10,40.4c16.3-24.8,41-43.9,69.1-53.5
	c-22.1,16-38.6,39.5-46.1,65.7c11.8-6.8,26.6-0.1,38.4,6.6c-19.1,3.6-37.8,9.5-55.5,17.5c13,3.8,24.8,11.7,33.3,22.3
	c-9.6-4.5-20.1-7.3-30.7-8c-1.7-0.1-3.5-0.2-5,0.6c-1.4,0.8-2.4,2.2-3.2,3.6c-9.8,16.3-12.6,35.8-14.4,54.8c-2.4,24.9-3.5,50-3.5,75
	c0,36.4,2.6,74.2,19.8,106.3c1.9,3.5,3.5,8.7,0,10.6c-0.9,0.5-1.9,0.6-3,0.7c-8.3,0.7-16.6,1.4-24.9,2c-2.3,0.2-4.6,0.4-6.8-0.1
	c-5.8-1.3-9.6-7.1-10.6-12.9c-1-5.8,0.3-11.8,1.3-17.6c3.8-20.9,5.1-42.2,6.4-63.5c1.2-19.6,2.4-39.2,3.6-58.9
	c2.1-34.7,4.2-69.4,1.9-104.1"/>
</svg>
